<?xml version="1.0" encoding="utf-8"?>
<svg width="17" height="16" viewBox="0 0 17 16" fill="none" xmlns="http://www.w3.org/2000/svg">
  <path d="M 11.333 4 L 11.333 3.467 C 11.333 2.72 11.333 2.347 11.188 2.061 C 11.06 1.81 10.856 1.606 10.605 1.479 C 10.32 1.333 9.947 1.333 9.2 1.333 L 8.133 1.333 C 7.387 1.333 7.013 1.333 6.728 1.479 C 6.477 1.606 6.273 1.81 6.145 2.061 C 6 2.347 6 2.72 6 3.467 L 6 4 M 7.333 7.667 L 7.333 11 M 10 7.667 L 10 11 M 2.667 4 L 7.917 4 L 14.667 4 M 13.333 4 L 13.333 11.467 C 13.333 12.587 13.333 13.147 13.115 13.575 C 12.924 13.951 12.618 14.257 12.241 14.449 C 11.814 14.667 11.254 14.667 10.133 14.667 L 7.2 14.667 C 6.08 14.667 5.52 14.667 5.092 14.449 C 4.716 14.257 4.41 13.951 4.218 13.575 C 4 13.147 4 12.587 4 11.467 L 4 4" stroke-width="1.6" stroke-linecap="round" stroke-linejoin="round" style="fill-rule: evenodd; stroke: rgb(0, 0, 0);"/>
</svg>